C:\Users\israe\Dropbox\PhDWork\ExperimentalData\subject1\055\P1S055W02_filtered35.mot
nRows=10
nColumns=28

name C:\Users\israe\Dropbox\PhDWork\ExperimentalData\subject1\055\P1S055W02_filtered35.mot
datacolumns 28
datarows 10
range 2.8500000000 2.8590000000
endheader
time	ground_force_1_vx	ground_force_1_vy	ground_force_1_vz	ground_force_1_px	ground_force_1_py	ground_force_1_pz	ground_moment_1_mx	ground_moment_1_my	ground_moment_1_mz	ground_force_2_vx	ground_force_2_vy	ground_force_2_vz	ground_force_2_px	ground_force_2_py	ground_force_2_pz	ground_moment_2_mx	ground_moment_2_my	ground_moment_2_mz	ground_force_3_vx	ground_force_3_vy	ground_force_3_vz	ground_force_3_px	ground_force_3_py	ground_force_3_pz	ground_moment_3_mx	ground_moment_3_my	ground_moment_3_mz
        2.8500000000	       -0.0000000000	        0.0000000000	        0.0000000000	        0.2000000000	        0.0000000000	       -0.9030000000	       -0.0000000000	        0.0000000000	       -0.0000000000	        0.0000000000	        0.0000000000	        0.0000000000	        0.2000000000	        0.0000000000	       -0.3000000000	        0.0000000000	       -0.0000000000	       -0.0000000000	        0.0008553899	        0.0227393232	       -0.0096115907	        0.2000000000	       -0.0000000000	        0.3030000000	       -0.0030329122	       -0.0001491230	        0.0004243360	
        2.8510000000	        0.0000000000	        0.0000000000	       -0.0000000000	        0.2000000000	        0.0000000000	       -0.9030000000	       -0.0000000000	       -0.0000000000	       -0.0000000000	        0.0000000000	        0.0000000000	        0.0000000000	        0.2000000000	        0.0000000000	       -0.3000000000	       -0.0000000000	       -0.0000000000	        0.0000000000	        0.0007104844	        0.0177610012	       -0.0076947442	        0.2000000000	       -0.0000000000	        0.3030000000	       -0.0023749417	       -0.0001152953	        0.0003257793	
        2.8520000000	        0.0000000000	        0.0000000000	       -0.0000000000	        0.2000000000	        0.0000000000	       -0.9030000000	       -0.0000000000	       -0.0000000000	       -0.0000000000	        0.0000000000	        0.0000000000	        0.0000000000	        0.2000000000	        0.0000000000	       -0.3000000000	       -0.0000000000	       -0.0000000000	        0.0000000000	        0.0005676102	        0.0132691424	       -0.0059115499	        0.2000000000	       -0.0000000000	        0.3030000000	       -0.0017795407	       -0.0000851110	        0.0002384725	
        2.8530000000	        0.0000000000	        0.0000000000	       -0.0000000000	        0.2000000000	        0.0000000000	       -0.9030000000	       -0.0000000000	       -0.0000000000	       -0.0000000000	        0.0000000000	        0.0000000000	       -0.0000000000	        0.2000000000	        0.0000000000	       -0.3000000000	       -0.0000000000	        0.0000000000	        0.0000000000	        0.0004350693	        0.0093889661	       -0.0043308254	        0.2000000000	       -0.0000000000	        0.3030000000	       -0.0012639215	       -0.0000592912	        0.0001642730	
        2.8540000000	        0.0000000000	        0.0000000000	       -0.0000000000	        0.2000000000	        0.0000000000	       -0.9030000000	       -0.0000000000	       -0.0000000000	       -0.0000000000	        0.0000000000	        0.0000000000	       -0.0000000000	        0.2000000000	        0.0000000000	       -0.3000000000	       -0.0000000000	        0.0000000000	        0.0000000000	        0.0003178485	        0.0061671178	       -0.0029865857	        0.2000000000	       -0.0000000000	        0.3030000000	       -0.0008347651	       -0.0000380518	        0.0001036195	
        2.8550000000	        0.0000000000	        0.0000000000	       -0.0000000000	        0.2000000000	        0.0000000000	       -0.9030000000	       -0.0000000000	       -0.0000000000	       -0.0000000000	        0.0000000000	        0.0000000000	       -0.0000000000	        0.2000000000	        0.0000000000	       -0.3000000000	       -0.0000000000	        0.0000000000	        0.0000000000	        0.0002183720	        0.0035939935	       -0.0018870942	        0.2000000000	       -0.0000000000	        0.3030000000	       -0.0004911869	       -0.0000212522	        0.0000559609	
        2.8560000000	        0.0000000000	        0.0000000000	       -0.0000000000	        0.2000000000	        0.0000000000	       -0.9030000000	       -0.0000000000	       -0.0000000000	       -0.0000000000	        0.0000000000	        0.0000000000	       -0.0000000000	        0.2000000000	        0.0000000000	       -0.3000000000	       -0.0000000000	        0.0000000000	        0.0000000000	        0.0001371729	        0.0016224162	       -0.0010226192	        0.2000000000	       -0.0000000000	        0.3030000000	       -0.0002272227	       -0.0000085186	        0.0000201087	
        2.8570000000	        0.0000000000	        0.0000000000	       -0.0000000000	        0.2000000000	        0.0000000000	       -0.9030000000	       -0.0000000000	       -0.0000000000	       -0.0000000000	       -0.0000000000	        0.0000000000	       -0.0000000000	        0.2000000000	        0.0000000000	       -0.3000000000	       -0.0000000000	        0.0000000000	        0.0000000000	        0.0000734675	        0.0001826652	       -0.0003718261	        0.2000000000	       -0.0000000000	        0.3030000000	       -0.0000338348	        0.0000006572	       -0.0000054837	
        2.8580000000	        0.0000000000	        0.0000000000	       -0.0000000000	        0.2000000000	        0.0000000000	       -0.9030000000	       -0.0000000000	       -0.0000000000	       -0.0000000000	       -0.0000000000	        0.0000000000	       -0.0000000000	        0.2000000000	        0.0000000000	       -0.3000000000	       -0.0000000000	        0.0000000000	        0.0000000000	        0.0000256275	        0.0000000000	        0.0000931568	        0.2000000000	       -0.0000000000	        0.3030000000	        0.0000995338	        0.0000068435	       -0.0000225089	
        2.8590000000	        0.0000000000	        0.0000000000	       -0.0000000000	        0.2000000000	        0.0000000000	       -0.9030000000	       -0.0000000000	       -0.0000000000	       -0.0000000000	       -0.0000000000	        0.0000000000	       -0.0000000000	        0.2000000000	        0.0000000000	       -0.3000000000	       -0.0000000000	        0.0000000000	        0.0000000000	       -0.0000084467	        0.0000000000	        0.0004028915	        0.2000000000	       -0.0000000000	        0.3030000000	        0.0001838097	        0.0000106131	       -0.0000326529	
